<svg width="133" height="32" viewBox="0 0 133 32" fill="none" xmlns="http://www.w3.org/2000/svg">
<g filter="url(#filter0_d)">
<path d="M19.9364 23C19.6751 22.2347 19.4044 21.4787 19.1244 20.732C18.8444 19.9853 18.5738 19.22 18.3124 18.436H10.1364C9.87509 19.22 9.60442 19.9947 9.32442 20.76C9.06309 21.5067 8.80176 22.2533 8.54042 23H4.87242C5.60042 20.928 6.29109 19.0147 6.94442 17.26C7.59776 15.5053 8.23242 13.844 8.84842 12.276C9.48309 10.708 10.1084 9.21467 10.7244 7.796C11.3404 6.37733 11.9751 4.97733 12.6284 3.596H15.9604C16.6138 4.97733 17.2484 6.37733 17.8644 7.796C18.4804 9.21467 19.0964 10.708 19.7124 12.276C20.3471 13.844 20.9911 15.5053 21.6444 17.26C22.3164 19.0147 23.0164 20.928 23.7444 23H19.9364ZM14.2244 7.348C13.7951 8.33733 13.3004 9.54133 12.7404 10.96C12.1991 12.3787 11.6298 13.9187 11.0324 15.58H17.4164C16.8191 13.9187 16.2404 12.3693 15.6804 10.932C15.1204 9.49467 14.6351 8.3 14.2244 7.348ZM31.125 23.28C30.117 23.2613 29.277 23.1493 28.605 22.944C27.9517 22.7387 27.429 22.4493 27.037 22.076C26.645 21.684 26.365 21.208 26.197 20.648C26.0477 20.0693 25.973 19.416 25.973 18.688V1.832L29.361 1.272V18.044C29.361 18.4547 29.389 18.8 29.445 19.08C29.5197 19.36 29.641 19.6027 29.809 19.808C29.977 19.9947 30.201 20.144 30.481 20.256C30.7797 20.3493 31.153 20.424 31.601 20.48L31.125 23.28ZM39.4935 20.62C40.5389 20.62 41.3322 20.564 41.8735 20.452V16.7C41.6869 16.644 41.4162 16.588 41.0615 16.532C40.7069 16.476 40.3149 16.448 39.8855 16.448C39.5122 16.448 39.1295 16.476 38.7375 16.532C38.3642 16.588 38.0189 16.6907 37.7015 16.84C37.4029 16.9893 37.1602 17.204 36.9735 17.484C36.7869 17.7453 36.6935 18.0813 36.6935 18.492C36.6935 19.2947 36.9455 19.8547 37.4495 20.172C37.9535 20.4707 38.6349 20.62 39.4935 20.62ZM39.2135 7.992C40.3335 7.992 41.2762 8.132 42.0415 8.412C42.8069 8.692 43.4135 9.084 43.8615 9.588C44.3282 10.092 44.6549 10.708 44.8415 11.436C45.0469 12.1453 45.1495 12.9293 45.1495 13.788V22.664C44.6269 22.776 43.8335 22.9067 42.7695 23.056C41.7242 23.224 40.5389 23.308 39.2135 23.308C38.3362 23.308 37.5335 23.224 36.8055 23.056C36.0775 22.888 35.4522 22.6173 34.9295 22.244C34.4255 21.8707 34.0242 21.3853 33.7255 20.788C33.4455 20.1907 33.3055 19.4533 33.3055 18.576C33.3055 17.736 33.4642 17.0267 33.7815 16.448C34.1175 15.8693 34.5655 15.4027 35.1255 15.048C35.6855 14.6747 36.3295 14.4133 37.0575 14.264C37.8042 14.096 38.5789 14.012 39.3815 14.012C39.7549 14.012 40.1469 14.04 40.5575 14.096C40.9682 14.1333 41.4069 14.208 41.8735 14.32V13.76C41.8735 13.368 41.8269 12.9947 41.7335 12.64C41.6402 12.2853 41.4722 11.9773 41.2295 11.716C41.0055 11.436 40.6975 11.2213 40.3055 11.072C39.9322 10.9227 39.4562 10.848 38.8775 10.848C38.0935 10.848 37.3749 10.904 36.7215 11.016C36.0682 11.128 35.5362 11.2587 35.1255 11.408L34.7055 8.664C35.1349 8.51467 35.7602 8.36533 36.5815 8.216C37.4029 8.06667 38.2802 7.992 39.2135 7.992ZM52.6866 14.068C53.1159 13.62 53.5732 13.144 54.0586 12.64C54.5439 12.1173 55.0199 11.604 55.4866 11.1C55.9532 10.5773 56.3919 10.0827 56.8026 9.616C57.2319 9.13067 57.5959 8.71067 57.8946 8.356H61.8986C60.9652 9.40133 59.9759 10.484 58.9306 11.604C57.9039 12.724 56.8679 13.816 55.8226 14.88C56.3826 15.3467 56.9706 15.916 57.5866 16.588C58.2026 17.2413 58.7999 17.9413 59.3786 18.688C59.9572 19.4347 60.4986 20.1813 61.0026 20.928C61.5066 21.6747 61.9266 22.3653 62.2626 23H58.3426C58.0066 22.4213 57.6146 21.8147 57.1666 21.18C56.7372 20.5453 56.2706 19.9293 55.7666 19.332C55.2626 18.7347 54.7492 18.1747 54.2266 17.652C53.7039 17.1107 53.1906 16.6533 52.6866 16.28V23H49.2986V1.832L52.6866 1.272V14.068ZM69.8725 20.62C70.9178 20.62 71.7111 20.564 72.2525 20.452V16.7C72.0658 16.644 71.7951 16.588 71.4405 16.532C71.0858 16.476 70.6938 16.448 70.2645 16.448C69.8911 16.448 69.5085 16.476 69.1165 16.532C68.7431 16.588 68.3978 16.6907 68.0805 16.84C67.7818 16.9893 67.5391 17.204 67.3525 17.484C67.1658 17.7453 67.0725 18.0813 67.0725 18.492C67.0725 19.2947 67.3245 19.8547 67.8285 20.172C68.3325 20.4707 69.0138 20.62 69.8725 20.62ZM69.5925 7.992C70.7125 7.992 71.6551 8.132 72.4205 8.412C73.1858 8.692 73.7925 9.084 74.2405 9.588C74.7071 10.092 75.0338 10.708 75.2205 11.436C75.4258 12.1453 75.5285 12.9293 75.5285 13.788V22.664C75.0058 22.776 74.2125 22.9067 73.1485 23.056C72.1031 23.224 70.9178 23.308 69.5925 23.308C68.7151 23.308 67.9125 23.224 67.1845 23.056C66.4565 22.888 65.8311 22.6173 65.3085 22.244C64.8045 21.8707 64.4031 21.3853 64.1045 20.788C63.8245 20.1907 63.6845 19.4533 63.6845 18.576C63.6845 17.736 63.8431 17.0267 64.1605 16.448C64.4965 15.8693 64.9445 15.4027 65.5045 15.048C66.0645 14.6747 66.7085 14.4133 67.4365 14.264C68.1831 14.096 68.9578 14.012 69.7605 14.012C70.1338 14.012 70.5258 14.04 70.9365 14.096C71.3471 14.1333 71.7858 14.208 72.2525 14.32V13.76C72.2525 13.368 72.2058 12.9947 72.1125 12.64C72.0191 12.2853 71.8511 11.9773 71.6085 11.716C71.3845 11.436 71.0765 11.2213 70.6845 11.072C70.3111 10.9227 69.8351 10.848 69.2565 10.848C68.4725 10.848 67.7538 10.904 67.1005 11.016C66.4471 11.128 65.9151 11.2587 65.5045 11.408L65.0845 8.664C65.5138 8.51467 66.1391 8.36533 66.9605 8.216C67.7818 8.06667 68.6591 7.992 69.5925 7.992ZM89.9255 10.736C89.5522 11.128 89.0575 11.6787 88.4415 12.388C87.8442 13.0973 87.2002 13.8907 86.5095 14.768C85.8188 15.6267 85.1188 16.532 84.4095 17.484C83.7188 18.4173 83.0935 19.3133 82.5335 20.172H90.0935V23H78.4455V20.9C78.8562 20.1533 79.3695 19.3413 79.9855 18.464C80.6015 17.5867 81.2362 16.7093 81.8895 15.832C82.5428 14.936 83.1868 14.0867 83.8215 13.284C84.4748 12.4813 85.0535 11.7813 85.5575 11.184H78.8095V8.356H89.9255V10.736ZM98.392 20.62C99.4373 20.62 100.231 20.564 100.772 20.452V16.7C100.585 16.644 100.315 16.588 99.96 16.532C99.6053 16.476 99.2133 16.448 98.784 16.448C98.4107 16.448 98.028 16.476 97.636 16.532C97.2627 16.588 96.9173 16.6907 96.6 16.84C96.3013 16.9893 96.0587 17.204 95.872 17.484C95.6853 17.7453 95.592 18.0813 95.592 18.492C95.592 19.2947 95.844 19.8547 96.348 20.172C96.852 20.4707 97.5333 20.62 98.392 20.62ZM98.112 7.992C99.232 7.992 100.175 8.132 100.94 8.412C101.705 8.692 102.312 9.084 102.76 9.588C103.227 10.092 103.553 10.708 103.74 11.436C103.945 12.1453 104.048 12.9293 104.048 13.788V22.664C103.525 22.776 102.732 22.9067 101.668 23.056C100.623 23.224 99.4373 23.308 98.112 23.308C97.2347 23.308 96.432 23.224 95.704 23.056C94.976 22.888 94.3507 22.6173 93.828 22.244C93.324 21.8707 92.9227 21.3853 92.624 20.788C92.344 20.1907 92.204 19.4533 92.204 18.576C92.204 17.736 92.3627 17.0267 92.68 16.448C93.016 15.8693 93.464 15.4027 94.024 15.048C94.584 14.6747 95.228 14.4133 95.956 14.264C96.7027 14.096 97.4773 14.012 98.28 14.012C98.6533 14.012 99.0453 14.04 99.456 14.096C99.8667 14.1333 100.305 14.208 100.772 14.32V13.76C100.772 13.368 100.725 12.9947 100.632 12.64C100.539 12.2853 100.371 11.9773 100.128 11.716C99.904 11.436 99.596 11.2213 99.204 11.072C98.8307 10.9227 98.3547 10.848 97.776 10.848C96.992 10.848 96.2733 10.904 95.62 11.016C94.9667 11.128 94.4347 11.2587 94.024 11.408L93.604 8.664C94.0333 8.51467 94.6587 8.36533 95.48 8.216C96.3013 8.06667 97.1787 7.992 98.112 7.992ZM116.541 15.3C116.541 13.7693 116.345 12.668 115.953 11.996C115.58 11.3053 114.87 10.96 113.825 10.96C113.452 10.96 113.041 10.988 112.593 11.044C112.145 11.1 111.809 11.1467 111.585 11.184V23H108.197V8.832C108.85 8.64533 109.7 8.468 110.745 8.3C111.809 8.132 112.929 8.048 114.105 8.048C115.113 8.048 115.934 8.17867 116.569 8.44C117.222 8.70133 117.764 9.04667 118.193 9.476C118.398 9.32667 118.66 9.168 118.977 9C119.294 8.832 119.649 8.68267 120.041 8.552C120.433 8.40267 120.844 8.28133 121.273 8.188C121.721 8.09467 122.169 8.048 122.617 8.048C123.756 8.048 124.689 8.216 125.417 8.552C126.164 8.86933 126.742 9.32667 127.153 9.924C127.582 10.5027 127.872 11.212 128.021 12.052C128.189 12.8733 128.273 13.7787 128.273 14.768V23H124.885V15.3C124.885 13.7693 124.698 12.668 124.325 11.996C123.952 11.3053 123.233 10.96 122.169 10.96C121.628 10.96 121.114 11.0533 120.629 11.24C120.144 11.408 119.78 11.576 119.537 11.744C119.686 12.2107 119.789 12.7053 119.845 13.228C119.901 13.7507 119.929 14.3107 119.929 14.908V23H116.541V15.3Z" fill="white"/>
<path d="M19.9364 23L19.4632 23.1616L19.5788 23.5H19.9364V23ZM19.1244 20.732L18.6562 20.9076L19.1244 20.732ZM18.3124 18.436L18.7868 18.2779L18.6728 17.936H18.3124V18.436ZM10.1364 18.436V17.936H9.77605L9.66208 18.2779L10.1364 18.436ZM9.32442 20.76L8.85481 20.5882L8.85249 20.5948L9.32442 20.76ZM8.54042 23V23.5H8.89516L9.01234 23.1652L8.54042 23ZM4.87242 23L4.40069 22.8343L4.16678 23.5H4.87242V23ZM6.94442 17.26L6.47585 17.0855L6.94442 17.26ZM8.84842 12.276L8.38492 12.0884L8.38304 12.0932L8.84842 12.276ZM10.7244 7.796L10.2658 7.59686L10.7244 7.796ZM12.6284 3.596V3.096H12.3118L12.1764 3.38222L12.6284 3.596ZM15.9604 3.596L16.4124 3.38222L16.277 3.096H15.9604V3.596ZM17.8644 7.796L17.4058 7.99514L17.8644 7.796ZM19.7124 12.276L19.247 12.4588L19.2489 12.4636L19.7124 12.276ZM21.6444 17.26L21.1758 17.4345L21.1775 17.4388L21.6444 17.26ZM23.7444 23V23.5H24.4501L24.2162 22.8343L23.7444 23ZM14.2244 7.348L14.6835 7.14995L14.2258 6.08885L13.7657 7.14895L14.2244 7.348ZM12.7404 10.96L12.2753 10.7764L12.2733 10.7817L12.7404 10.96ZM11.0324 15.58L10.5619 15.4108L10.3213 16.08H11.0324V15.58ZM17.4164 15.58V16.08H18.1275L17.8869 15.4108L17.4164 15.58ZM15.6804 10.932L16.1463 10.7505L15.6804 10.932ZM20.4096 22.8384C20.1467 22.0685 19.8743 21.3078 19.5926 20.5564L18.6562 20.9076C18.9345 21.6495 19.2035 22.4009 19.4632 23.1616L20.4096 22.8384ZM19.5926 20.5564C19.3148 19.8158 19.0462 19.0562 18.7868 18.2779L17.8381 18.5941C18.1013 19.3838 18.374 20.1549 18.6562 20.9076L19.5926 20.5564ZM18.3124 17.936H10.1364V18.936H18.3124V17.936ZM9.66208 18.2779C9.40225 19.0574 9.13318 19.8275 8.85486 20.5882L9.79398 20.9318C10.0757 20.1619 10.3479 19.3826 10.6108 18.5941L9.66208 18.2779ZM8.85249 20.5948C8.82413 20.6759 8.83185 20.6538 8.8035 20.7348C8.77513 20.8159 8.78285 20.7938 8.75449 20.8748C8.75002 20.8876 8.70998 21.002 8.70549 21.0148C8.69983 21.031 8.68666 21.0686 8.681 21.0848C8.67532 21.101 8.66216 21.1386 8.65649 21.1548C8.65082 21.171 8.63766 21.2086 8.63199 21.2248C8.62633 21.241 8.61316 21.2786 8.6075 21.2948C8.60182 21.311 8.58865 21.3486 8.58299 21.3648C8.57733 21.381 8.56416 21.4186 8.55849 21.4348C8.55283 21.451 8.53966 21.4886 8.534 21.5048C8.52832 21.521 8.51517 21.5586 8.50949 21.5748C8.50383 21.591 8.49066 21.6286 8.48499 21.6448C8.47932 21.661 8.46616 21.6986 8.46049 21.7148C8.41808 21.836 8.40491 21.8737 8.36249 21.9948C8.33209 22.0817 8.29489 22.188 8.2645 22.2748C8.25139 22.3123 8.2531 22.3074 8.23999 22.3448C8.22746 22.3806 8.22801 22.379 8.2155 22.4148C8.20139 22.4551 8.20509 22.4445 8.19099 22.4848C8.1769 22.5251 8.18059 22.5145 8.16649 22.5548C8.15239 22.5951 8.1561 22.5845 8.142 22.6248C8.12968 22.66 8.12979 22.6597 8.11749 22.6948C8.1156 22.7002 8.09488 22.7594 8.09299 22.7648C8.09135 22.7695 8.07013 22.8302 8.0685 22.8348L9.01234 23.1652C9.01399 23.1605 9.02296 23.1348 9.0246 23.1302C9.02612 23.1258 9.03532 23.0995 9.03685 23.0952C9.03874 23.0898 9.04721 23.0656 9.0491 23.0602C9.0498 23.0582 9.06065 23.0272 9.06136 23.0252C9.06204 23.0232 9.07291 22.9922 9.07361 22.9902C9.0743 22.9882 9.08516 22.9572 9.08585 22.9552C9.08784 22.9495 9.09612 22.9259 9.0981 22.9202C9.10063 22.913 9.10783 22.8924 9.11035 22.8852C9.11368 22.8757 9.11928 22.8597 9.1226 22.8502C9.12593 22.8407 9.13152 22.8247 9.13486 22.8152C9.13818 22.8057 9.14377 22.7897 9.14709 22.7802C9.1503 22.771 9.15614 22.7543 9.15935 22.7452C9.16255 22.736 9.1684 22.7193 9.1716 22.7102C9.17206 22.7089 9.1834 22.6765 9.18385 22.6752C9.1927 22.6499 9.18724 22.6655 9.19611 22.6402C9.2067 22.6099 9.19777 22.6354 9.20836 22.6052C9.21156 22.596 9.22964 22.5443 9.23285 22.5352C9.23605 22.526 9.25415 22.4743 9.25735 22.4652C9.26006 22.4574 9.27914 22.4029 9.28185 22.3952C9.28456 22.3874 9.30365 22.3329 9.30635 22.3252C9.30905 22.3174 9.32814 22.2629 9.33086 22.2552C9.33206 22.2517 9.35414 22.1886 9.35535 22.1852C9.36395 22.1606 9.37125 22.1398 9.37985 22.1152C9.39044 22.0849 9.39377 22.0754 9.40436 22.0452C9.40871 22.0327 9.41223 22.0226 9.4166 22.0102C9.42122 21.997 9.42422 21.9884 9.42885 21.9752C9.43347 21.962 9.43648 21.9534 9.4411 21.9402C9.44572 21.927 9.44873 21.9184 9.45335 21.9052C9.45798 21.892 9.46098 21.8834 9.46561 21.8702C9.47023 21.857 9.47322 21.8484 9.47784 21.8352C9.48247 21.822 9.48547 21.8134 9.4901 21.8002C9.49472 21.787 9.49773 21.7784 9.50235 21.7652C9.50697 21.752 9.50998 21.7434 9.5146 21.7302C9.51923 21.717 9.52223 21.7084 9.52686 21.6952C9.53148 21.682 9.53448 21.6734 9.53911 21.6602C9.54373 21.647 9.54672 21.6384 9.55135 21.6252C9.55597 21.612 9.55898 21.6034 9.5636 21.5902C9.56822 21.577 9.57123 21.5684 9.57585 21.5552C9.58047 21.542 9.58348 21.5334 9.5881 21.5202C9.59273 21.507 9.59573 21.4984 9.60036 21.4852C9.60498 21.472 9.60797 21.4634 9.61259 21.4502C9.61722 21.437 9.62022 21.4284 9.62485 21.4152C9.62947 21.402 9.63248 21.3934 9.6371 21.3802C9.64172 21.367 9.64473 21.3584 9.64935 21.3452C9.65398 21.332 9.65698 21.3234 9.66161 21.3102C9.66623 21.297 9.66924 21.2884 9.67386 21.2752C9.67848 21.262 9.68147 21.2534 9.6861 21.2402C9.69072 21.227 9.69373 21.2184 9.69835 21.2052C9.70045 21.1992 9.7085 21.1762 9.7106 21.1702C9.71381 21.161 9.71352 21.1618 9.71672 21.1527C9.71742 21.1507 9.72215 21.1372 9.72285 21.1352C9.72356 21.1332 9.72827 21.1197 9.72897 21.1177C9.72968 21.1157 9.73441 21.1022 9.73511 21.1002C9.73581 21.0982 9.74052 21.0847 9.74123 21.0827C9.74193 21.0807 9.74664 21.0672 9.74734 21.0652C9.74805 21.0632 9.75278 21.0497 9.75348 21.0477C9.75418 21.0457 9.7589 21.0322 9.7596 21.0302C9.7603 21.0282 9.76503 21.0147 9.76573 21.0127C9.76614 21.0115 9.77144 20.9964 9.77185 20.9952C9.77226 20.994 9.77756 20.9789 9.77797 20.9777C9.77838 20.9765 9.78369 20.9614 9.7841 20.9602C9.78452 20.959 9.78981 20.9439 9.79022 20.9427C9.79063 20.9415 9.79594 20.9264 9.79636 20.9252L8.85249 20.5948ZM8.54042 22.5H4.87242V23.5H8.54042V22.5ZM5.34415 23.1657C6.0713 21.0962 6.7609 19.1858 7.41299 17.4345L6.47585 17.0855C5.82127 18.8435 5.12955 20.7598 4.40069 22.8343L5.34415 23.1657ZM7.41299 17.4345C8.0654 15.6823 8.69901 14.0238 9.3138 12.4588L8.38304 12.0932C7.76585 13.6642 7.13011 15.3284 6.47585 17.0855L7.41299 17.4345ZM9.31189 12.4636C9.94514 10.8991 10.5689 9.40965 11.1831 7.99514L10.2658 7.59686C9.64798 9.01969 9.02104 10.5169 8.38495 12.0884L9.31189 12.4636ZM11.1831 7.99514C11.797 6.58133 12.4294 5.18621 13.0804 3.80978L12.1764 3.38222C11.5208 4.76845 10.8839 6.17334 10.2658 7.59686L11.1831 7.99514ZM12.6284 4.096H15.9604V3.096H12.6284V4.096ZM15.5084 3.80978C16.1594 5.18621 16.7919 6.58133 17.4058 7.99514L18.3231 7.59686C17.7049 6.17334 17.0681 4.76845 16.4124 3.38222L15.5084 3.80978ZM17.4058 7.99514C18.0193 9.40796 18.633 10.8958 19.247 12.4588L20.1778 12.0932C19.5598 10.5202 18.9416 9.02137 18.3231 7.59686L17.4058 7.99514ZM19.2489 12.4636C19.8817 14.0268 20.524 15.6837 21.1758 17.4345L22.113 17.0855C21.4582 15.3269 20.8125 13.6612 20.1759 12.0884L19.2489 12.4636ZM21.1775 17.4388C21.8476 19.1885 22.546 21.0974 23.2727 23.1657L24.2162 22.8343C23.4869 20.7586 22.7853 18.8408 22.1114 17.0812L21.1775 17.4388ZM23.7444 22.5H19.9364V23.5H23.7444V22.5ZM13.7657 7.14895C13.3335 8.14501 12.8366 9.35449 12.2753 10.7764L13.2055 11.1436C13.7642 9.72817 14.2567 8.52965 14.6831 7.54705L13.7657 7.14895ZM12.2733 10.7817C11.7306 12.2039 11.1602 13.7469 10.5619 15.4108L11.5029 15.7492C12.0993 14.0904 12.6676 12.5535 13.2076 11.1383L12.2733 10.7817ZM11.0324 16.08H17.4164V15.08H11.0324V16.08ZM17.8869 15.4108C17.2883 13.7459 16.7081 12.1924 16.1463 10.7505L15.2145 11.1135C15.7727 12.5462 16.3499 14.0914 16.9459 15.7492L17.8869 15.4108ZM16.1463 10.7505C15.5851 9.30999 15.0974 8.10936 14.6835 7.14995L13.7653 7.54605C14.1728 8.49064 14.6558 9.67934 15.2145 11.1135L16.1463 10.7505ZM31.125 23.28L31.1158 23.7799L31.5459 23.7879L31.618 23.3638L31.125 23.28ZM28.605 22.944L28.4551 23.421L28.4589 23.4222L28.605 22.944ZM27.037 22.076L26.6834 22.4297L26.6922 22.4381L27.037 22.076ZM26.1971 20.648L25.7129 20.7729L25.7153 20.7824L25.7181 20.7917L26.1971 20.648ZM25.9731 1.832L25.8915 1.33869L25.4731 1.40786V1.832H25.9731ZM29.3611 1.272H29.8611V0.682571L29.2795 0.778693L29.3611 1.272ZM29.4451 19.08L28.9548 19.1781L28.9579 19.1936L28.9619 19.2088L29.4451 19.08ZM29.8091 19.808L29.4221 20.1246L29.4295 20.1337L29.4374 20.1425L29.8091 19.808ZM30.481 20.256L30.2953 20.7202L30.3134 20.7274L30.3319 20.7332L30.481 20.256ZM31.601 20.48L32.094 20.5638L32.1815 20.0487L31.6631 19.9839L31.601 20.48ZM31.1343 22.7801C30.1544 22.7619 29.3641 22.6531 28.7512 22.4658L28.4589 23.4222C29.19 23.6455 30.0797 23.7607 31.1158 23.7799L31.1343 22.7801ZM28.755 22.467C28.1557 22.2787 27.7059 22.0225 27.3819 21.7139L26.6922 22.4381C27.1522 22.8762 27.7477 23.1987 28.4551 23.421L28.755 22.467ZM27.3906 21.7224C27.0603 21.3922 26.8215 20.9895 26.676 20.5043L25.7181 20.7917C25.9086 21.4265 26.2298 21.9758 26.6835 22.4296L27.3906 21.7224ZM26.6812 20.5231C26.5444 19.9929 26.4731 19.3827 26.4731 18.688H25.4731C25.4731 19.4493 25.5511 20.1457 25.7129 20.7729L26.6812 20.5231ZM26.4731 18.688V1.832H25.4731V18.688H26.4731ZM26.0546 2.32531L29.4426 1.76531L29.2795 0.778693L25.8915 1.33869L26.0546 2.32531ZM28.8611 1.272V18.044H29.8611V1.272H28.8611ZM28.8611 18.044C28.8611 18.4746 28.8902 18.8551 28.9548 19.1781L29.9353 18.9819C29.8879 18.7449 29.8611 18.4347 29.8611 18.044H28.8611ZM28.9619 19.2088C29.0532 19.5511 29.205 19.8593 29.4221 20.1246L30.196 19.4914C30.0771 19.346 29.9862 19.1689 29.9282 18.9512L28.9619 19.2088ZM29.4374 20.1425C29.6659 20.3964 29.9584 20.5854 30.2953 20.7202L30.6667 19.7918C30.4437 19.7026 30.2882 19.5929 30.1807 19.4735L29.4374 20.1425ZM30.3319 20.7332C30.6684 20.8384 31.0732 20.9179 31.539 20.9761L31.6631 19.9839C31.2329 19.9301 30.891 19.8603 30.6302 19.7788L30.3319 20.7332ZM31.1081 20.3962L30.6321 23.1962L31.618 23.3638L32.094 20.5638L31.1081 20.3962ZM41.8736 20.452L41.9749 20.9416L42.3736 20.8591V20.452H41.8736ZM41.8736 16.7H42.3736V16.328L42.0172 16.2211L41.8736 16.7ZM41.0616 16.532L40.9836 17.0259L41.0616 16.532ZM38.7375 16.532L38.6668 16.037L38.6634 16.0375L38.7375 16.532ZM37.7016 16.84L37.4886 16.3875L37.4779 16.3928L37.7016 16.84ZM36.9735 17.484L37.3804 17.7746L37.3851 17.7681L37.3896 17.7614L36.9735 17.484ZM37.4496 20.172L37.183 20.5953L37.1946 20.6021L37.4496 20.172ZM42.0415 8.412L42.2133 7.94244L42.0415 8.412ZM43.8615 9.588L43.4878 9.92025L43.4947 9.9277L43.8615 9.588ZM44.8416 11.436L44.3572 11.5602L44.3591 11.5676L44.3613 11.575L44.8416 11.436ZM45.1496 22.664L45.2543 23.1529L45.6496 23.0682V22.664H45.1496ZM42.7695 23.056L42.7 22.5608L42.6902 22.5623L42.7695 23.056ZM36.8055 23.056L36.918 22.5688L36.8055 23.056ZM34.9296 22.244L34.6319 22.6458L34.6389 22.6509L34.9296 22.244ZM33.7255 20.788L33.2727 21.0003L33.2783 21.0116L33.7255 20.788ZM33.7815 16.448L33.349 16.1969L33.3431 16.2076L33.7815 16.448ZM35.1255 15.048L35.3931 15.4705L35.4029 15.464L35.1255 15.048ZM37.0575 14.264L37.158 14.7539L37.1673 14.7518L37.0575 14.264ZM40.5575 14.096L40.49 14.5914L40.5011 14.5929L40.5123 14.5939L40.5575 14.096ZM41.8736 14.32L41.7569 14.8062L42.3736 14.9542V14.32H41.8736ZM41.7336 12.64L41.25 12.7672L41.7336 12.64ZM41.2296 11.716L40.8391 12.0283L40.8506 12.0427L40.8631 12.0562L41.2296 11.716ZM40.3055 11.072L40.1198 11.5363L40.1275 11.5392L40.3055 11.072ZM36.7215 11.016L36.6371 10.5232L36.7215 11.016ZM35.1255 11.408L34.6313 11.4836L34.7235 12.0862L35.2964 11.8779L35.1255 11.408ZM34.7056 8.664L34.5413 8.19175L34.1484 8.32842L34.2113 8.73965L34.7056 8.664ZM36.5815 8.216L36.671 8.70794L36.5815 8.216ZM39.4935 21.12C40.5485 21.12 41.3827 21.0641 41.9749 20.9416L41.7722 19.9624C41.2817 20.0639 40.5292 20.12 39.4935 20.12V21.12ZM42.3736 20.452V16.7H41.3736V20.452H42.3736ZM42.0172 16.2211C41.7981 16.1554 41.5012 16.0952 41.1395 16.0381L40.9836 17.0259C41.3312 17.0808 41.5757 17.1326 41.7299 17.1789L42.0172 16.2211ZM41.1395 16.0381C40.7547 15.9773 40.3361 15.948 39.8855 15.948V16.948C40.2937 16.948 40.6591 16.9747 40.9836 17.0259L41.1395 16.0381ZM39.8855 15.948C39.4872 15.948 39.0809 15.9779 38.6668 16.037L38.8083 17.027C39.1782 16.9741 39.5372 16.948 39.8855 16.948V15.948ZM38.6634 16.0375C38.2457 16.1002 37.8532 16.2161 37.4886 16.3876L37.9144 17.2924C38.1846 17.1653 38.4828 17.0758 38.8117 17.0265L38.6634 16.0375ZM37.4779 16.3928C37.1008 16.5814 36.7921 16.8548 36.5575 17.2066L37.3896 17.7614C37.5284 17.5532 37.7049 17.3973 37.9252 17.2872L37.4779 16.3928ZM36.5667 17.1934C36.3045 17.5605 36.1935 18.0062 36.1935 18.492H37.1935C37.1935 18.1564 37.2693 17.9302 37.3804 17.7746L36.5667 17.1934ZM36.1935 18.492C36.1935 19.3998 36.4851 20.1556 37.1831 20.5951L37.716 19.7489C37.406 19.5537 37.1935 19.1895 37.1935 18.492H36.1935ZM37.1946 20.6021C37.8036 20.963 38.5843 21.12 39.4935 21.12V20.12C38.6855 20.12 38.1035 19.9783 37.7045 19.7419L37.1946 20.6021ZM39.2135 8.492C40.2953 8.492 41.1758 8.62768 41.8698 8.88156L42.2133 7.94244C41.3766 7.63632 40.3717 7.492 39.2135 7.492V8.492ZM41.8698 8.88156C42.5735 9.13904 43.1051 9.4896 43.4878 9.92018L44.2352 9.25582C43.722 8.6784 43.0402 8.24496 42.2133 7.94244L41.8698 8.88156ZM43.4947 9.9277C43.8997 10.3651 44.1892 10.9049 44.3572 11.5602L45.3259 11.3118C45.1206 10.5111 44.7567 9.81888 44.2284 9.24829L43.4947 9.9277ZM44.3613 11.575C44.5516 12.2325 44.6496 12.9689 44.6496 13.788H45.6496C45.6496 12.8898 45.5422 12.0581 45.3218 11.297L44.3613 11.575ZM44.6496 13.788V22.664H45.6496V13.788H44.6496ZM45.0448 22.1751C44.5403 22.2832 43.7615 22.4119 42.7001 22.5609L42.839 23.5511C43.9056 23.4015 44.7134 23.2688 45.2543 23.1529L45.0448 22.1751ZM42.6902 22.5623C41.6767 22.7252 40.5186 22.808 39.2135 22.808V23.808C40.5591 23.808 41.7718 23.7228 42.8489 23.5497L42.6902 22.5623ZM39.2135 22.808C38.3677 22.808 37.6034 22.727 36.918 22.5688L36.6931 23.5432C37.4637 23.721 38.3047 23.808 39.2135 23.808V22.808ZM36.918 22.5688C36.2437 22.4132 35.6813 22.1665 35.2202 21.8371L34.6389 22.6509C35.2231 23.0682 35.9113 23.3628 36.6931 23.5432L36.918 22.5688ZM35.2272 21.8422C34.7904 21.5187 34.4386 21.0961 34.1728 20.5644L33.2783 21.0116C33.6098 21.6746 34.0607 22.2226 34.6319 22.6458L35.2272 21.8422ZM34.1783 20.5758C33.9379 20.063 33.8055 19.403 33.8055 18.576H32.8055C32.8055 19.5036 32.9532 20.3184 33.2728 21.0002L34.1783 20.5758ZM33.8055 18.576C33.8055 17.7976 33.9526 17.176 34.22 16.6884L33.3431 16.2076C32.9758 16.8774 32.8055 17.6744 32.8055 18.576H33.8055ZM34.2139 16.6991C34.51 16.1893 34.9017 15.7816 35.3931 15.4704L34.858 14.6256C34.2294 15.0237 33.7251 15.5494 33.3492 16.1969L34.2139 16.6991ZM35.4029 15.464C35.9039 15.13 36.4866 14.8915 37.158 14.7538L36.9571 13.7742C36.1725 13.9351 35.4672 14.2193 34.8482 14.632L35.4029 15.464ZM37.1673 14.7518C37.8762 14.5923 38.614 14.512 39.3815 14.512V13.512C38.5437 13.512 37.7322 13.5997 36.9478 13.7762L37.1673 14.7518ZM39.3815 14.512C39.73 14.512 40.0993 14.5381 40.49 14.5914L40.6251 13.6006C40.1945 13.5419 39.7798 13.512 39.3815 13.512V14.512ZM40.5123 14.5939C40.8954 14.6288 41.31 14.6989 41.7569 14.8062L41.9902 13.8338C41.5038 13.7171 41.0411 13.6379 40.6028 13.5981L40.5123 14.5939ZM42.3736 14.32V13.76H41.3736V14.32H42.3736ZM42.3736 13.76C42.3736 13.328 42.3221 12.9117 42.2171 12.5128L41.25 12.7672C41.3317 13.0776 41.3736 13.408 41.3736 13.76H42.3736ZM42.2171 12.5128C42.1034 12.0809 41.8962 11.6991 41.5959 11.3758L40.8631 12.0562C41.0482 12.2555 41.177 12.4898 41.25 12.7672L42.2171 12.5128ZM41.62 11.4037C41.3314 11.0429 40.9446 10.7804 40.4836 10.6048L40.1275 11.5392C40.4505 11.6623 40.6797 11.8291 40.8391 12.0283L41.62 11.4037ZM40.4912 10.6078C40.039 10.4269 39.4942 10.348 38.8775 10.348V11.348C39.4182 11.348 39.8255 11.4185 40.1199 11.5362L40.4912 10.6078ZM38.8775 10.348C38.0702 10.348 37.3228 10.4056 36.6371 10.5232L36.806 11.5088C37.427 11.4024 38.1169 11.348 38.8775 11.348V10.348ZM36.6371 10.5232C35.9677 10.6379 35.4038 10.7748 34.9547 10.9381L35.2964 11.8779C35.6686 11.7425 36.1687 11.6181 36.806 11.5088L36.6371 10.5232ZM35.6198 11.3323L35.1998 8.58835L34.2113 8.73965L34.6313 11.4836L35.6198 11.3323ZM34.8698 9.13625C35.2624 8.99968 35.8578 8.85579 36.671 8.70794L36.4921 7.72406C35.6626 7.87488 35.0073 8.02965 34.5413 8.19175L34.8698 9.13625ZM36.671 8.70794C37.4596 8.56455 38.3067 8.492 39.2135 8.492V7.492C38.2537 7.492 37.3462 7.56878 36.4921 7.72406L36.671 8.70794ZM52.6866 14.068H52.1866V15.3124L53.0476 14.414L52.6866 14.068ZM54.0586 12.64L54.4188 12.9869L54.425 12.9802L54.0586 12.64ZM55.4866 11.1L55.8535 11.4398L55.8595 11.433L55.4866 11.1ZM56.8026 9.616L56.4281 9.28471L56.4272 9.28569L56.8026 9.616ZM57.8946 8.356V7.856H57.662L57.5121 8.03393L57.8946 8.356ZM61.8986 8.356L62.2715 8.68901L63.0153 7.856H61.8986V8.356ZM58.9306 11.604L58.565 11.2628L58.562 11.2661L58.9306 11.604ZM55.8226 14.88L55.4659 14.5296L55.0856 14.9167L55.5025 15.2641L55.8226 14.88ZM57.5866 16.588L57.218 16.9259L57.2228 16.931L57.5866 16.588ZM59.3786 18.688L58.9834 18.9943L59.3786 18.688ZM61.0026 20.928L61.417 20.6483L61.0026 20.928ZM62.2626 23V23.5H63.093L62.7045 22.7661L62.2626 23ZM58.3426 23L57.9102 23.2511L58.0547 23.5H58.3426V23ZM57.1666 21.18L56.7523 21.4602L56.7581 21.4683L57.1666 21.18ZM55.7666 19.332L56.1487 19.0096L55.7666 19.332ZM54.2266 17.652L53.8668 17.9993L53.873 18.0056L54.2266 17.652ZM52.6866 16.28L52.9842 15.8782L52.1866 15.2874V16.28H52.6866ZM52.6866 23V23.5H53.1866V23H52.6866ZM49.2986 23H48.7986V23.5H49.2986V23ZM49.2986 1.832L49.217 1.33869L48.7986 1.40786V1.832H49.2986ZM52.6866 1.272H53.1866V0.682571L52.605 0.778693L52.6866 1.272ZM53.0476 14.414C53.4766 13.9663 53.9337 13.4906 54.4187 12.9868L53.6984 12.2932C53.2128 12.7974 52.7552 13.2737 52.3256 13.722L53.0476 14.414ZM54.425 12.9802C54.9105 12.4574 55.3866 11.9439 55.8535 11.4397L55.1197 10.7603C54.6532 11.2641 54.1774 11.7773 53.6922 12.2998L54.425 12.9802ZM55.8595 11.433C56.3269 10.9096 56.7664 10.414 57.1779 9.94631L56.4272 9.28569C56.0174 9.75135 55.5796 10.2451 55.1136 10.767L55.8595 11.433ZM57.1771 9.94729C57.6081 9.46 57.975 9.03678 58.277 8.67807L57.5121 8.03393C57.2169 8.38455 56.8557 8.80133 56.4281 9.28471L57.1771 9.94729ZM57.8946 8.856H61.8986V7.856H57.8946V8.856ZM61.5256 8.02299C60.5949 9.06534 59.6081 10.1453 58.565 11.2628L59.2961 11.9452C60.3437 10.8227 61.3356 9.73732 62.2715 8.68901L61.5256 8.02299ZM58.562 11.2661C57.5392 12.382 56.5071 13.4698 55.4659 14.5296L56.1792 15.2304C57.2287 14.1622 58.2687 13.066 59.2991 11.9419L58.562 11.2661ZM55.5025 15.2641C56.0417 15.7134 56.6135 16.2665 57.218 16.9259L57.9552 16.2501C57.3276 15.5655 56.7235 14.9799 56.1427 14.4959L55.5025 15.2641ZM57.2228 16.931C57.8272 17.572 58.4141 18.2597 58.9834 18.9943L59.7738 18.3817C59.1858 17.623 58.578 16.9106 57.9504 16.245L57.2228 16.931ZM58.9834 18.9943C59.5557 19.7327 60.0906 20.4706 60.5882 21.2077L61.417 20.6483C60.9066 19.8921 60.3588 19.1366 59.7738 18.3817L58.9834 18.9943ZM60.5882 21.2077C61.0846 21.9432 61.4948 22.6184 61.8207 23.2339L62.7045 22.7661C62.3584 22.1123 61.9286 21.4062 61.417 20.6483L60.5882 21.2077ZM62.2626 22.5H58.3426V23.5H62.2626V22.5ZM58.775 22.7489C58.4305 22.1557 58.0303 21.5365 57.5751 20.8917L56.7581 21.4683C57.1989 22.0928 57.5827 22.687 57.9102 23.2511L58.775 22.7489ZM57.5807 20.8998C57.1413 20.2502 56.6639 19.6201 56.1487 19.0096L55.3844 19.6544C55.8773 20.2385 56.3332 20.8404 56.7524 21.4602L57.5807 20.8998ZM56.1487 19.0096C55.6362 18.4021 55.1133 17.8316 54.5801 17.2984L53.873 18.0056C54.3852 18.5177 54.889 19.0673 55.3844 19.6544L56.1487 19.0096ZM54.5863 17.3047C54.0481 16.7473 53.5142 16.2708 52.9842 15.8782L52.389 16.6818C52.8669 17.0358 53.3597 17.474 53.8669 17.9993L54.5863 17.3047ZM52.1866 16.28V23H53.1866V16.28H52.1866ZM52.6866 22.5H49.2986V23.5H52.6866V22.5ZM49.7986 23V1.832H48.7986V23H49.7986ZM49.3801 2.32531L52.7681 1.76531L52.605 0.778693L49.217 1.33869L49.3801 2.32531ZM52.1866 1.272V14.068H53.1866V1.272H52.1866ZM72.2525 20.452L72.3538 20.9416L72.7525 20.8591V20.452H72.2525ZM72.2525 16.7H72.7525V16.328L72.3961 16.2211L72.2525 16.7ZM71.4405 16.532L71.3625 17.0259L71.4405 16.532ZM69.1165 16.532L69.0457 16.037L69.0423 16.0375L69.1165 16.532ZM68.0805 16.84L67.8675 16.3875L67.8568 16.3928L68.0805 16.84ZM67.3524 17.484L67.7593 17.7746L67.764 17.7681L67.7685 17.7614L67.3524 17.484ZM67.8285 20.172L67.562 20.5953L67.5735 20.6021L67.8285 20.172ZM72.4205 8.412L72.5922 7.94244L72.4205 8.412ZM74.2404 9.588L73.8667 9.92025L73.8736 9.9277L74.2404 9.588ZM75.2205 11.436L74.7361 11.5602L74.738 11.5676L74.7402 11.575L75.2205 11.436ZM75.5285 22.664L75.6332 23.1529L76.0285 23.0682V22.664H75.5285ZM73.1485 23.056L73.0789 22.5608L73.0691 22.5623L73.1485 23.056ZM67.1844 23.056L67.2969 22.5688L67.1844 23.056ZM65.3085 22.244L65.0108 22.6458L65.0178 22.6509L65.3085 22.244ZM64.1044 20.788L63.6516 21.0003L63.6572 21.0116L64.1044 20.788ZM64.1604 16.448L63.7279 16.1969L63.722 16.2076L64.1604 16.448ZM65.5045 15.048L65.772 15.4705L65.7818 15.464L65.5045 15.048ZM67.4364 14.264L67.5369 14.7539L67.5462 14.7518L67.4364 14.264ZM70.9364 14.096L70.8689 14.5914L70.88 14.5929L70.8912 14.5939L70.9364 14.096ZM72.2525 14.32L72.1358 14.8062L72.7525 14.9542V14.32H72.2525ZM72.1125 12.64L71.6289 12.7672L72.1125 12.64ZM71.6085 11.716L71.218 12.0283L71.2295 12.0427L71.2421 12.0562L71.6085 11.716ZM70.6844 11.072L70.4987 11.5363L70.5065 11.5392L70.6844 11.072ZM67.1004 11.016L67.016 10.5232L67.1004 11.016ZM65.5045 11.408L65.0102 11.4836L65.1024 12.0862L65.6753 11.8779L65.5045 11.408ZM65.0845 8.664L64.9202 8.19175L64.5273 8.32842L64.5902 8.73965L65.0845 8.664ZM66.9604 8.216L67.0499 8.70794L66.9604 8.216ZM69.8725 21.12C70.9274 21.12 71.7616 21.0641 72.3538 20.9416L72.1512 19.9624C71.6606 20.0639 70.9081 20.12 69.8725 20.12V21.12ZM72.7525 20.452V16.7H71.7525V20.452H72.7525ZM72.3961 16.2211C72.177 16.1554 71.8801 16.0952 71.5184 16.0381L71.3625 17.0259C71.7101 17.0808 71.9546 17.1326 72.1088 17.1789L72.3961 16.2211ZM71.5184 16.0381C71.1336 15.9773 70.715 15.948 70.2645 15.948V16.948C70.6726 16.948 71.038 16.9747 71.3625 17.0259L71.5184 16.0381ZM70.2645 15.948C69.8661 15.948 69.4598 15.9779 69.0457 16.037L69.1872 17.027C69.5571 16.9741 69.9162 16.948 70.2645 16.948V15.948ZM69.0423 16.0375C68.6246 16.1002 68.2321 16.2161 67.8676 16.3876L68.2934 17.2924C68.5635 17.1653 68.8617 17.0758 69.1906 17.0265L69.0423 16.0375ZM67.8568 16.3928C67.4797 16.5814 67.171 16.8548 66.9364 17.2066L67.7685 17.7614C67.9073 17.5532 68.0838 17.3973 68.3041 17.2872L67.8568 16.3928ZM66.9456 17.1934C66.6834 17.5605 66.5724 18.0062 66.5724 18.492H67.5724C67.5724 18.1564 67.6482 17.9302 67.7593 17.7746L66.9456 17.1934ZM66.5724 18.492C66.5724 19.3998 66.864 20.1556 67.562 20.5951L68.0949 19.7489C67.7849 19.5537 67.5724 19.1895 67.5724 18.492H66.5724ZM67.5735 20.6021C68.1826 20.963 68.9632 21.12 69.8725 21.12V20.12C69.0644 20.12 68.4824 19.9783 68.0834 19.7419L67.5735 20.6021ZM69.5925 8.492C70.6742 8.492 71.5547 8.62768 72.2487 8.88156L72.5922 7.94244C71.7555 7.63632 70.7507 7.492 69.5925 7.492V8.492ZM72.2487 8.88156C72.9524 9.13904 73.484 9.4896 73.8667 9.92018L74.6142 9.25582C74.1009 8.6784 73.4191 8.24496 72.5922 7.94244L72.2487 8.88156ZM73.8736 9.9277C74.2786 10.3651 74.5681 10.9049 74.7361 11.5602L75.7048 11.3118C75.4995 10.5111 75.1357 9.81888 74.6073 9.24829L73.8736 9.9277ZM74.7402 11.575C74.9305 12.2325 75.0285 12.9689 75.0285 13.788H76.0285C76.0285 12.8898 75.9211 12.0581 75.7007 11.297L74.7402 11.575ZM75.0285 13.788V22.664H76.0285V13.788H75.0285ZM75.4237 22.1751C74.9192 22.2832 74.1404 22.4119 73.079 22.5609L73.2179 23.5511C74.2845 23.4015 75.0923 23.2688 75.6332 23.1529L75.4237 22.1751ZM73.0691 22.5623C72.0556 22.7252 70.8975 22.808 69.5925 22.808V23.808C70.938 23.808 72.1507 23.7228 73.2278 23.5497L73.0691 22.5623ZM69.5925 22.808C68.7466 22.808 67.9823 22.727 67.2969 22.5688L67.072 23.5432C67.8426 23.721 68.6837 23.808 69.5925 23.808V22.808ZM67.2969 22.5688C66.6227 22.4132 66.0602 22.1665 65.5991 21.8371L65.0178 22.6509C65.602 23.0682 66.2903 23.3628 67.072 23.5432L67.2969 22.5688ZM65.6061 21.8422C65.1693 21.5187 64.8175 21.0961 64.5517 20.5644L63.6572 21.0116C63.9887 21.6746 64.4396 22.2226 65.0108 22.6458L65.6061 21.8422ZM64.5572 20.5758C64.3168 20.063 64.1844 19.403 64.1844 18.576H63.1844C63.1844 19.5036 63.3321 20.3184 63.6517 21.0002L64.5572 20.5758ZM64.1844 18.576C64.1844 17.7976 64.3315 17.176 64.5989 16.6884L63.722 16.2076C63.3547 16.8774 63.1844 17.6744 63.1844 18.576H64.1844ZM64.5928 16.6991C64.8889 16.1893 65.2806 15.7816 65.772 15.4704L65.2369 14.6256C64.6083 15.0237 64.104 15.5494 63.7281 16.1969L64.5928 16.6991ZM65.7818 15.464C66.2828 15.13 66.8655 14.8915 67.5369 14.7538L67.336 13.7742C66.5514 13.9351 65.8461 14.2193 65.2271 14.632L65.7818 15.464ZM67.5462 14.7518C68.2551 14.5923 68.9929 14.512 69.7605 14.512V13.512C68.9227 13.512 68.1111 13.5997 67.3267 13.7762L67.5462 14.7518ZM69.7605 14.512C70.1089 14.512 70.4782 14.5381 70.8689 14.5914L71.004 13.6006C70.5734 13.5419 70.1587 13.512 69.7605 13.512V14.512ZM70.8912 14.5939C71.2743 14.6288 71.6889 14.6989 72.1358 14.8062L72.3691 13.8338C71.8827 13.7171 71.42 13.6379 70.9817 13.5981L70.8912 14.5939ZM72.7525 14.32V13.76H71.7525V14.32H72.7525ZM72.7525 13.76C72.7525 13.328 72.701 12.9117 72.596 12.5128L71.6289 12.7672C71.7106 13.0776 71.7525 13.408 71.7525 13.76H72.7525ZM72.596 12.5128C72.4823 12.0809 72.2751 11.6991 71.9749 11.3758L71.2421 12.0562C71.4271 12.2555 71.5559 12.4898 71.6289 12.7672L72.596 12.5128ZM71.9989 11.4037C71.7103 11.0429 71.3235 10.7804 70.8625 10.6048L70.5065 11.5392C70.8294 11.6623 71.0586 11.8291 71.218 12.0283L71.9989 11.4037ZM70.8701 10.6078C70.4179 10.4269 69.8731 10.348 69.2565 10.348V11.348C69.7971 11.348 70.2044 11.4185 70.4988 11.5362L70.8701 10.6078ZM69.2565 10.348C68.4491 10.348 67.7017 10.4056 67.016 10.5232L67.1849 11.5088C67.8059 11.4024 68.4958 11.348 69.2565 11.348V10.348ZM67.016 10.5232C66.3466 10.6379 65.7827 10.7748 65.3336 10.9381L65.6753 11.8779C66.0475 11.7425 66.5476 11.6181 67.1849 11.5088L67.016 10.5232ZM65.9987 11.3323L65.5787 8.58835L64.5902 8.73965L65.0102 11.4836L65.9987 11.3323ZM65.2487 9.13625C65.6413 8.99968 66.2367 8.85579 67.0499 8.70794L66.871 7.72406C66.0415 7.87488 65.3862 8.02965 64.9202 8.19175L65.2487 9.13625ZM67.0499 8.70794C67.8385 8.56455 68.6857 8.492 69.5925 8.492V7.492C68.6326 7.492 67.7251 7.56878 66.871 7.72406L67.0499 8.70794ZM89.9255 10.736L90.2876 11.0808L90.4255 10.936V10.736H89.9255ZM88.4415 12.388L88.0639 12.0601L88.059 12.0659L88.4415 12.388ZM86.5095 14.768L86.8991 15.0814L86.9024 15.0773L86.5095 14.768ZM84.4095 17.484L84.0085 17.1853L84.0076 17.1866L84.4095 17.484ZM82.5335 20.172L82.1147 19.8989L81.6105 20.672H82.5335V20.172ZM90.0935 20.172H90.5935V19.672H90.0935V20.172ZM90.0935 23V23.5H90.5935V23H90.0935ZM78.4455 23H77.9455V23.5H78.4455V23ZM78.4455 20.9L78.0074 20.659L77.9455 20.7716V20.9H78.4455ZM79.9855 18.464L80.3947 18.7513L79.9855 18.464ZM81.8895 15.832L82.2905 16.1306L82.2935 16.1266L81.8895 15.832ZM83.8215 13.284L83.4337 12.9683L83.4293 12.9739L83.8215 13.284ZM85.5575 11.184L85.9396 11.5064L86.6336 10.684H85.5575V11.184ZM78.8095 11.184H78.3095V11.684H78.8095V11.184ZM78.8095 8.356V7.856H78.3095V8.356H78.8095ZM89.9255 8.356H90.4255V7.856H89.9255V8.356ZM89.5634 10.3912C89.1823 10.7913 88.6819 11.3486 88.064 12.0602L88.819 12.7158C89.433 12.0088 89.922 11.4647 90.2876 11.0808L89.5634 10.3912ZM88.059 12.0659C87.4575 12.7802 86.81 13.5779 86.1166 14.4587L86.9024 15.0773C87.5903 14.2034 88.2308 13.4145 88.8239 12.7101L88.059 12.0659ZM86.1199 14.4546C85.4251 15.3184 84.7213 16.2287 84.0085 17.1853L84.8104 17.7827C85.5164 16.8353 86.2126 15.9349 86.8991 15.0814L86.1199 14.4546ZM84.0076 17.1866C83.3118 18.1268 82.6807 19.0309 82.1147 19.8989L82.9523 20.4451C83.5063 19.5957 84.1259 18.7078 84.8114 17.7814L84.0076 17.1866ZM82.5335 20.672H90.0935V19.672H82.5335V20.672ZM89.5935 20.172V23H90.5935V20.172H89.5935ZM90.0935 22.5H78.4455V23.5H90.0935V22.5ZM78.9455 23V20.9H77.9455V23H78.9455ZM78.8836 21.141C79.2836 20.4137 79.7866 19.6173 80.3947 18.7513L79.5763 18.1767C78.9523 19.0653 78.4287 19.893 78.0074 20.659L78.8836 21.141ZM80.3947 18.7513C81.008 17.8779 81.6399 17.0043 82.2905 16.1306L81.4885 15.5334C80.8324 16.4144 80.195 17.2955 79.5763 18.1767L80.3947 18.7513ZM82.2935 16.1266C82.9433 15.2354 83.5834 14.3913 84.2137 13.5941L83.4293 12.9739C82.7903 13.782 82.1423 14.6366 81.4855 15.5374L82.2935 16.1266ZM84.2093 13.5996C84.8613 12.7986 85.438 12.1009 85.9396 11.5064L85.1753 10.8616C84.6689 11.4617 84.0883 12.1641 83.4337 12.9684L84.2093 13.5996ZM85.5575 10.684H78.8095V11.684H85.5575V10.684ZM79.3095 11.184V8.356H78.3095V11.184H79.3095ZM78.8095 8.856H89.9255V7.856H78.8095V8.856ZM89.4255 8.356V10.736H90.4255V8.356H89.4255ZM100.772 20.452L100.873 20.9416L101.272 20.8591V20.452H100.772ZM100.772 16.7H101.272V16.328L100.916 16.2211L100.772 16.7ZM99.96 16.532L99.882 17.0259L99.96 16.532ZM97.636 16.532L97.5653 16.037L97.5618 16.0375L97.636 16.532ZM96.6 16.84L96.387 16.3875L96.3764 16.3928L96.6 16.84ZM95.872 17.484L96.2789 17.7746L96.2835 17.7681L96.288 17.7614L95.872 17.484ZM96.348 20.172L96.0815 20.5953L96.0931 20.6021L96.348 20.172ZM100.94 8.412L101.112 7.94244L100.94 8.412ZM102.76 9.588L102.386 9.92025L102.393 9.9277L102.76 9.588ZM103.74 11.436L103.256 11.5602L103.258 11.5676L103.26 11.575L103.74 11.436ZM104.048 22.664L104.153 23.1529L104.548 23.0682V22.664H104.048ZM101.668 23.056L101.598 22.5608L101.589 22.5623L101.668 23.056ZM95.704 23.056L95.8164 22.5688L95.704 23.056ZM93.828 22.244L93.5303 22.6458L93.5374 22.6509L93.828 22.244ZM92.624 20.788L92.1711 21.0003L92.1768 21.0116L92.624 20.788ZM92.68 16.448L92.2475 16.1969L92.2416 16.2076L92.68 16.448ZM94.024 15.048L94.2916 15.4705L94.3013 15.464L94.024 15.048ZM95.956 14.264L96.0565 14.7539L96.0657 14.7518L95.956 14.264ZM99.456 14.096L99.3884 14.5914L99.3996 14.5929L99.4107 14.5939L99.456 14.096ZM100.772 14.32L100.655 14.8062L101.272 14.9542V14.32H100.772ZM100.632 12.64L100.148 12.7672L100.632 12.64ZM100.128 11.716L99.7375 12.0283L99.7491 12.0427L99.7616 12.0562L100.128 11.716ZM99.204 11.072L99.0183 11.5363L99.026 11.5392L99.204 11.072ZM95.62 11.016L95.5355 10.5232L95.62 11.016ZM94.024 11.408L93.5297 11.4836L93.622 12.0862L94.1949 11.8779L94.024 11.408ZM93.604 8.664L93.4397 8.19175L93.0468 8.32842L93.1097 8.73965L93.604 8.664ZM95.48 8.216L95.5694 8.70794L95.48 8.216ZM98.392 21.12C99.447 21.12 100.281 21.0641 100.873 20.9416L100.671 19.9624C100.18 20.0639 99.4277 20.12 98.392 20.12V21.12ZM101.272 20.452V16.7H100.272V20.452H101.272ZM100.916 16.2211C100.697 16.1554 100.4 16.0952 100.038 16.0381L99.882 17.0259C100.23 17.0808 100.474 17.1326 100.628 17.1789L100.916 16.2211ZM100.038 16.0381C99.6531 15.9773 99.2345 15.948 98.784 15.948V16.948C99.1921 16.948 99.5575 16.9747 99.882 17.0259L100.038 16.0381ZM98.784 15.948C98.3856 15.948 97.9793 15.9779 97.5653 16.037L97.7067 17.027C98.0767 16.9741 98.4357 16.948 98.784 16.948V15.948ZM97.5618 16.0375C97.1441 16.1002 96.7516 16.2161 96.3871 16.3876L96.8129 17.2924C97.083 17.1653 97.3812 17.0758 97.7102 17.0265L97.5618 16.0375ZM96.3764 16.3928C95.9993 16.5814 95.6905 16.8548 95.456 17.2066L96.288 17.7614C96.4268 17.5532 96.6034 17.3973 96.8236 17.2872L96.3764 16.3928ZM95.4651 17.1934C95.2029 17.5605 95.092 18.0062 95.092 18.492H96.092C96.092 18.1564 96.1677 17.9302 96.2789 17.7746L95.4651 17.1934ZM95.092 18.492C95.092 19.3998 95.3836 20.1556 96.0816 20.5951L96.6144 19.7489C96.3044 19.5537 96.092 19.1895 96.092 18.492H95.092ZM96.0931 20.6021C96.7021 20.963 97.4827 21.12 98.392 21.12V20.12C97.5839 20.12 97.0019 19.9783 96.6029 19.7419L96.0931 20.6021ZM98.112 8.492C99.1938 8.492 100.074 8.62768 100.768 8.88156L101.112 7.94244C100.275 7.63632 99.2702 7.492 98.112 7.492V8.492ZM100.768 8.88156C101.472 9.13904 102.004 9.4896 102.386 9.92018L103.134 9.25582C102.62 8.6784 101.939 8.24496 101.112 7.94244L100.768 8.88156ZM102.393 9.9277C102.798 10.3651 103.088 10.9049 103.256 11.5602L104.224 11.3118C104.019 10.5111 103.655 9.81888 103.127 9.24829L102.393 9.9277ZM103.26 11.575C103.45 12.2325 103.548 12.9689 103.548 13.788H104.548C104.548 12.8898 104.441 12.0581 104.22 11.297L103.26 11.575ZM103.548 13.788V22.664H104.548V13.788H103.548ZM103.943 22.1751C103.439 22.2832 102.66 22.4119 101.598 22.5609L101.737 23.5511C102.804 23.4015 103.612 23.2688 104.153 23.1529L103.943 22.1751ZM101.589 22.5623C100.575 22.7252 99.4171 22.808 98.112 22.808V23.808C99.4576 23.808 100.67 23.7228 101.747 23.5497L101.589 22.5623ZM98.112 22.808C97.2661 22.808 96.5018 22.727 95.8164 22.5688L95.5916 23.5432C96.3622 23.721 97.2032 23.808 98.112 23.808V22.808ZM95.8164 22.5688C95.1422 22.4132 94.5797 22.1665 94.1186 21.8371L93.5374 22.6509C94.1216 23.0682 94.8098 23.3628 95.5916 23.5432L95.8164 22.5688ZM94.1256 21.8422C93.6888 21.5187 93.337 21.0961 93.0712 20.5644L92.1768 21.0116C92.5083 21.6746 92.9591 22.2226 93.5304 22.6458L94.1256 21.8422ZM93.0767 20.5758C92.8363 20.063 92.704 19.403 92.704 18.576H91.704C91.704 19.5036 91.8516 20.3184 92.1712 21.0002L93.0767 20.5758ZM92.704 18.576C92.704 17.7976 92.851 17.176 93.1184 16.6884L92.2416 16.2076C91.8743 16.8774 91.704 17.6744 91.704 18.576H92.704ZM93.1124 16.6991C93.4084 16.1893 93.8001 15.7816 94.2915 15.4704L93.7565 14.6256C93.1279 15.0237 92.6236 15.5494 92.2476 16.1969L93.1124 16.6991ZM94.3013 15.464C94.8024 15.13 95.385 14.8915 96.0565 14.7538L95.8555 13.7742C95.0709 13.9351 94.3656 14.2193 93.7466 14.632L94.3013 15.464ZM96.0657 14.7518C96.7747 14.5923 97.5125 14.512 98.28 14.512V13.512C97.4422 13.512 96.6306 13.5997 95.8462 13.7762L96.0657 14.7518ZM98.28 14.512C98.6284 14.512 98.9977 14.5381 99.3884 14.5914L99.5235 13.6006C99.0929 13.5419 98.6782 13.512 98.28 13.512V14.512ZM99.4107 14.5939C99.7938 14.6288 100.208 14.6989 100.655 14.8062L100.889 13.8338C100.402 13.7171 99.9395 13.6379 99.5013 13.5981L99.4107 14.5939ZM101.272 14.32V13.76H100.272V14.32H101.272ZM101.272 13.76C101.272 13.328 101.221 12.9117 101.116 12.5128L100.148 12.7672C100.23 13.0776 100.272 13.408 100.272 13.76H101.272ZM101.116 12.5128C101.002 12.0809 100.795 11.6991 100.494 11.3758L99.7616 12.0562C99.9467 12.2555 100.075 12.4898 100.148 12.7672L101.116 12.5128ZM100.518 11.4037C100.23 11.0429 99.843 10.7804 99.382 10.6048L99.026 11.5392C99.3489 11.6623 99.5781 11.8291 99.7375 12.0283L100.518 11.4037ZM99.3897 10.6078C98.9374 10.4269 98.3926 10.348 97.776 10.348V11.348C98.3167 11.348 98.7239 11.4185 99.0183 11.5362L99.3897 10.6078ZM97.776 10.348C96.9686 10.348 96.2212 10.4056 95.5355 10.5232L95.7045 11.5088C96.3254 11.4024 97.0153 11.348 97.776 11.348V10.348ZM95.5355 10.5232C94.8661 10.6379 94.3022 10.7748 93.8531 10.9381L94.1949 11.8779C94.5671 11.7425 95.0672 11.6181 95.7045 11.5088L95.5355 10.5232ZM94.5182 11.3323L94.0982 8.58835L93.1097 8.73965L93.5297 11.4836L94.5182 11.3323ZM93.7682 9.13625C94.1609 8.99968 94.7562 8.85579 95.5694 8.70794L95.3905 7.72406C94.5611 7.87488 93.9058 8.02965 93.4397 8.19175L93.7682 9.13625ZM95.5694 8.70794C96.358 8.56455 97.2052 8.492 98.112 8.492V7.492C97.1521 7.492 96.2446 7.56878 95.3905 7.72406L95.5694 8.70794ZM115.953 11.996L115.513 12.2338L115.517 12.2409L115.521 12.2479L115.953 11.996ZM111.585 11.184L111.503 10.6908L111.085 10.7604V11.184H111.585ZM111.585 23V23.5H112.085V23H111.585ZM108.197 23H107.697V23.5H108.197V23ZM108.197 8.832L108.06 8.35124L107.697 8.45485V8.832H108.197ZM110.745 8.3L110.667 7.80612L110.666 7.80633L110.745 8.3ZM116.569 8.44L116.379 8.90236L116.383 8.90424L116.569 8.44ZM118.193 9.476L117.839 9.82955L118.142 10.1317L118.487 9.88037L118.193 9.476ZM118.977 9L119.211 9.44189V9.44189L118.977 9ZM120.041 8.552L120.199 9.02634L120.209 9.023L120.219 9.01924L120.041 8.552ZM121.273 8.188L121.171 7.69849L121.167 7.69941L121.273 8.188ZM125.417 8.552L125.207 9.00598L125.214 9.00918L125.221 9.01216L125.417 8.552ZM127.153 9.924L126.741 10.2073L126.746 10.2147L126.751 10.2219L127.153 9.924ZM128.021 12.052L127.529 12.1395L127.531 12.1522L128.021 12.052ZM128.273 23V23.5H128.773V23H128.273ZM124.885 23H124.385V23.5H124.885V23ZM124.325 11.996L123.885 12.2338L123.888 12.2388L124.325 11.996ZM120.629 11.24L120.793 11.7125L120.801 11.7097L120.809 11.7067L120.629 11.24ZM119.537 11.744L119.252 11.3329L118.948 11.5437L119.061 11.8964L119.537 11.744ZM119.845 13.228L120.342 13.1747V13.1747L119.845 13.228ZM119.929 23V23.5H120.429V23H119.929ZM116.541 23H116.041V23.5H116.541V23ZM117.041 15.3C117.041 13.7513 116.847 12.5364 116.385 11.7441L115.521 12.2479C115.843 12.7996 116.041 13.7874 116.041 15.3H117.041ZM116.393 11.7582C115.903 10.8524 114.984 10.46 113.825 10.46V11.46C114.757 11.46 115.256 11.7582 115.513 12.2338L116.393 11.7582ZM113.825 10.46C113.427 10.46 112.995 10.4898 112.531 10.5479L112.655 11.5401C113.087 11.4862 113.476 11.46 113.825 11.46V10.46ZM112.531 10.5479C112.081 10.6041 111.737 10.6517 111.503 10.6908L111.667 11.6772C111.881 11.6416 112.209 11.5959 112.655 11.5401L112.531 10.5479ZM111.085 11.184V23H112.085V11.184H111.085ZM111.585 22.5H108.197V23.5H111.585V22.5ZM108.697 23V8.832H107.697V23H108.697ZM108.334 9.31276C108.961 9.13367 109.789 8.96004 110.824 8.79366L110.666 7.80633C109.61 7.97595 108.739 8.157 108.06 8.35124L108.334 9.31276ZM110.823 8.79388C111.859 8.6303 112.953 8.548 114.105 8.548V7.548C112.905 7.548 111.759 7.63369 110.667 7.80612L110.823 8.79388ZM114.105 8.548C115.076 8.548 115.826 8.67466 116.379 8.90234L116.759 7.97766C116.043 7.68267 115.15 7.548 114.105 7.548V8.548ZM116.383 8.90424C116.984 9.14438 117.465 9.4551 117.839 9.82955L118.547 9.12245C118.062 8.63823 117.461 8.25828 116.755 7.97576L116.383 8.90424ZM118.487 9.88037C118.667 9.74933 118.907 9.60296 119.211 9.44189L118.743 8.55811C118.413 8.73304 118.129 8.904 117.899 9.07163L118.487 9.88037ZM119.211 9.44189C119.501 9.28853 119.829 9.14957 120.199 9.02634L119.883 8.07766C119.469 8.21576 119.088 8.37547 118.743 8.55811L119.211 9.44189ZM120.219 9.01924C120.587 8.87922 120.973 8.76486 121.379 8.67659L121.167 7.69941C120.714 7.7978 120.279 7.92611 119.863 8.08475L120.219 9.01924ZM121.375 8.67749C121.79 8.59099 122.204 8.548 122.617 8.548V7.548C122.134 7.548 121.652 7.59834 121.171 7.69851L121.375 8.67749ZM122.617 8.548C123.712 8.548 124.567 8.71025 125.207 9.00598L125.627 8.09802C124.811 7.72175 123.8 7.548 122.617 7.548V8.548ZM125.221 9.01216C125.891 9.29688 126.39 9.69738 126.741 10.2073L127.565 9.64074C127.094 8.95595 126.436 8.44178 125.613 8.09183L125.221 9.01216ZM126.751 10.2219C127.127 10.728 127.39 11.3618 127.529 12.1395L128.513 11.9645C128.353 11.0622 128.038 10.2774 127.555 9.62608L126.751 10.2219ZM127.531 12.1522C127.691 12.9353 127.773 13.8065 127.773 14.768H128.773C128.773 13.7508 128.687 12.8114 128.511 11.9518L127.531 12.1522ZM127.773 14.768V23H128.773V14.768H127.773ZM128.273 22.5H124.885V23.5H128.273V22.5ZM125.385 23V15.3H124.385V23H125.385ZM125.385 15.3C125.385 13.753 125.201 12.5424 124.762 11.7532L123.888 12.2388C124.196 12.7936 124.385 13.7856 124.385 15.3H125.385ZM124.765 11.7582C124.274 10.8495 123.342 10.46 122.169 10.46V11.46C123.124 11.46 123.63 11.7612 123.885 12.2338L124.765 11.7582ZM122.169 10.46C121.569 10.46 120.994 10.5637 120.45 10.7733L120.809 11.7067C121.234 11.5429 121.686 11.46 122.169 11.46V10.46ZM120.465 10.7675C119.964 10.9411 119.55 11.1268 119.252 11.3329L119.822 12.1551C120.009 12.0252 120.324 11.8749 120.793 11.7125L120.465 10.7675ZM119.061 11.8964C119.199 12.3286 119.295 12.7898 119.348 13.2813L120.342 13.1747C120.283 12.6208 120.174 12.0928 120.013 11.5916L119.061 11.8964ZM119.348 13.2813C119.402 13.784 119.429 14.3261 119.429 14.908H120.429C120.429 14.2952 120.4 13.7173 120.342 13.1747L119.348 13.2813ZM119.429 14.908V23H120.429V14.908H119.429ZM119.929 22.5H116.541V23.5H119.929V22.5ZM117.041 23V15.3H116.041V23H117.041Z" fill="#F0F0F0"/>
</g>
<defs>
<filter id="filter0_d" x="0.166748" y="0.682556" width="132.606" height="31.1254" filterUnits="userSpaceOnUse" color-interpolation-filters="sRGB">
<feFlood flood-opacity="0" result="BackgroundImageFix"/>
<feColorMatrix in="SourceAlpha" type="matrix" values="0 0 0 0 0 0 0 0 0 0 0 0 0 0 0 0 0 0 127 0"/>
<feOffset dy="4"/>
<feGaussianBlur stdDeviation="2"/>
<feColorMatrix type="matrix" values="0 0 0 0 0 0 0 0 0 0 0 0 0 0 0 0 0 0 0.25 0"/>
<feBlend mode="normal" in2="BackgroundImageFix" result="effect1_dropShadow"/>
<feBlend mode="normal" in="SourceGraphic" in2="effect1_dropShadow" result="shape"/>
</filter>
</defs>
</svg>
