<svg width="134" height="33" viewBox="0 0 134 33" fill="none" xmlns="http://www.w3.org/2000/svg">
<g filter="url(#filter0_d)">
<path d="M20.1574 23C19.896 22.2347 19.6254 21.4787 19.3454 20.732C19.0654 19.9853 18.7947 19.22 18.5334 18.436H10.3574C10.096 19.22 9.82537 19.9947 9.54537 20.76C9.28404 21.5067 9.0227 22.2533 8.76137 23H5.09337C5.82137 20.928 6.51204 19.0147 7.16537 17.26C7.8187 15.5053 8.45337 13.844 9.06937 12.276C9.70404 10.708 10.3294 9.21467 10.9454 7.796C11.5614 6.37733 12.196 4.97733 12.8494 3.596H16.1814C16.8347 4.97733 17.4694 6.37733 18.0854 7.796C18.7014 9.21467 19.3174 10.708 19.9334 12.276C20.568 13.844 21.212 15.5053 21.8654 17.26C22.5374 19.0147 23.2374 20.928 23.9654 23H20.1574ZM14.4454 7.348C14.016 8.33733 13.5214 9.54133 12.9614 10.96C12.42 12.3787 11.8507 13.9187 11.2534 15.58H17.6374C17.04 13.9187 16.4614 12.3693 15.9014 10.932C15.3414 9.49467 14.856 8.3 14.4454 7.348ZM31.346 23.28C30.338 23.2613 29.498 23.1493 28.826 22.944C28.1727 22.7387 27.65 22.4493 27.258 22.076C26.866 21.684 26.586 21.208 26.418 20.648C26.2687 20.0693 26.194 19.416 26.194 18.688V1.832L29.582 1.272V18.044C29.582 18.4547 29.61 18.8 29.666 19.08C29.7407 19.36 29.862 19.6027 30.03 19.808C30.198 19.9947 30.422 20.144 30.702 20.256C31.0007 20.3493 31.374 20.424 31.822 20.48L31.346 23.28ZM39.7145 20.62C40.7598 20.62 41.5532 20.564 42.0945 20.452V16.7C41.9078 16.644 41.6372 16.588 41.2825 16.532C40.9278 16.476 40.5358 16.448 40.1065 16.448C39.7332 16.448 39.3505 16.476 38.9585 16.532C38.5852 16.588 38.2398 16.6907 37.9225 16.84C37.6238 16.9893 37.3812 17.204 37.1945 17.484C37.0078 17.7453 36.9145 18.0813 36.9145 18.492C36.9145 19.2947 37.1665 19.8547 37.6705 20.172C38.1745 20.4707 38.8558 20.62 39.7145 20.62ZM39.4345 7.992C40.5545 7.992 41.4972 8.132 42.2625 8.412C43.0278 8.692 43.6345 9.084 44.0825 9.588C44.5492 10.092 44.8758 10.708 45.0625 11.436C45.2678 12.1453 45.3705 12.9293 45.3705 13.788V22.664C44.8478 22.776 44.0545 22.9067 42.9905 23.056C41.9452 23.224 40.7598 23.308 39.4345 23.308C38.5572 23.308 37.7545 23.224 37.0265 23.056C36.2985 22.888 35.6732 22.6173 35.1505 22.244C34.6465 21.8707 34.2452 21.3853 33.9465 20.788C33.6665 20.1907 33.5265 19.4533 33.5265 18.576C33.5265 17.736 33.6852 17.0267 34.0025 16.448C34.3385 15.8693 34.7865 15.4027 35.3465 15.048C35.9065 14.6747 36.5505 14.4133 37.2785 14.264C38.0252 14.096 38.7998 14.012 39.6025 14.012C39.9758 14.012 40.3678 14.04 40.7785 14.096C41.1892 14.1333 41.6278 14.208 42.0945 14.32V13.76C42.0945 13.368 42.0478 12.9947 41.9545 12.64C41.8612 12.2853 41.6932 11.9773 41.4505 11.716C41.2265 11.436 40.9185 11.2213 40.5265 11.072C40.1532 10.9227 39.6772 10.848 39.0985 10.848C38.3145 10.848 37.5958 10.904 36.9425 11.016C36.2892 11.128 35.7572 11.2587 35.3465 11.408L34.9265 8.664C35.3558 8.51467 35.9812 8.36533 36.8025 8.216C37.6238 8.06667 38.5012 7.992 39.4345 7.992ZM52.9075 14.068C53.3369 13.62 53.7942 13.144 54.2795 12.64C54.7649 12.1173 55.2409 11.604 55.7075 11.1C56.1742 10.5773 56.6129 10.0827 57.0235 9.616C57.4529 9.13067 57.8169 8.71067 58.1155 8.356H62.1195C61.1862 9.40133 60.1969 10.484 59.1515 11.604C58.1249 12.724 57.0889 13.816 56.0435 14.88C56.6035 15.3467 57.1915 15.916 57.8075 16.588C58.4235 17.2413 59.0209 17.9413 59.5995 18.688C60.1782 19.4347 60.7195 20.1813 61.2235 20.928C61.7275 21.6747 62.1475 22.3653 62.4835 23H58.5635C58.2275 22.4213 57.8355 21.8147 57.3875 21.18C56.9582 20.5453 56.4915 19.9293 55.9875 19.332C55.4835 18.7347 54.9702 18.1747 54.4475 17.652C53.9249 17.1107 53.4115 16.6533 52.9075 16.28V23H49.5195V1.832L52.9075 1.272V14.068ZM70.0934 20.62C71.1387 20.62 71.9321 20.564 72.4734 20.452V16.7C72.2867 16.644 72.0161 16.588 71.6614 16.532C71.3067 16.476 70.9147 16.448 70.4854 16.448C70.1121 16.448 69.7294 16.476 69.3374 16.532C68.9641 16.588 68.6187 16.6907 68.3014 16.84C68.0027 16.9893 67.7601 17.204 67.5734 17.484C67.3867 17.7453 67.2934 18.0813 67.2934 18.492C67.2934 19.2947 67.5454 19.8547 68.0494 20.172C68.5534 20.4707 69.2347 20.62 70.0934 20.62ZM69.8134 7.992C70.9334 7.992 71.8761 8.132 72.6414 8.412C73.4067 8.692 74.0134 9.084 74.4614 9.588C74.9281 10.092 75.2547 10.708 75.4414 11.436C75.6467 12.1453 75.7494 12.9293 75.7494 13.788V22.664C75.2267 22.776 74.4334 22.9067 73.3694 23.056C72.3241 23.224 71.1387 23.308 69.8134 23.308C68.9361 23.308 68.1334 23.224 67.4054 23.056C66.6774 22.888 66.0521 22.6173 65.5294 22.244C65.0254 21.8707 64.6241 21.3853 64.3254 20.788C64.0454 20.1907 63.9054 19.4533 63.9054 18.576C63.9054 17.736 64.0641 17.0267 64.3814 16.448C64.7174 15.8693 65.1654 15.4027 65.7254 15.048C66.2854 14.6747 66.9294 14.4133 67.6574 14.264C68.4041 14.096 69.1787 14.012 69.9814 14.012C70.3547 14.012 70.7467 14.04 71.1574 14.096C71.5681 14.1333 72.0067 14.208 72.4734 14.32V13.76C72.4734 13.368 72.4267 12.9947 72.3334 12.64C72.2401 12.2853 72.0721 11.9773 71.8294 11.716C71.6054 11.436 71.2974 11.2213 70.9054 11.072C70.5321 10.9227 70.0561 10.848 69.4774 10.848C68.6934 10.848 67.9747 10.904 67.3214 11.016C66.6681 11.128 66.1361 11.2587 65.7254 11.408L65.3054 8.664C65.7347 8.51467 66.3601 8.36533 67.1814 8.216C68.0027 8.06667 68.8801 7.992 69.8134 7.992ZM90.1464 10.736C89.7731 11.128 89.2784 11.6787 88.6624 12.388C88.0651 13.0973 87.4211 13.8907 86.7304 14.768C86.0398 15.6267 85.3398 16.532 84.6304 17.484C83.9398 18.4173 83.3144 19.3133 82.7544 20.172H90.3144V23H78.6664V20.9C79.0771 20.1533 79.5904 19.3413 80.2064 18.464C80.8224 17.5867 81.4571 16.7093 82.1104 15.832C82.7638 14.936 83.4078 14.0867 84.0424 13.284C84.6958 12.4813 85.2744 11.7813 85.7784 11.184H79.0304V8.356H90.1464V10.736ZM98.6129 20.62C99.6583 20.62 100.452 20.564 100.993 20.452V16.7C100.806 16.644 100.536 16.588 100.181 16.532C99.8263 16.476 99.4343 16.448 99.0049 16.448C98.6316 16.448 98.2489 16.476 97.8569 16.532C97.4836 16.588 97.1383 16.6907 96.8209 16.84C96.5223 16.9893 96.2796 17.204 96.0929 17.484C95.9063 17.7453 95.8129 18.0813 95.8129 18.492C95.8129 19.2947 96.0649 19.8547 96.5689 20.172C97.0729 20.4707 97.7543 20.62 98.6129 20.62ZM98.3329 7.992C99.4529 7.992 100.396 8.132 101.161 8.412C101.926 8.692 102.533 9.084 102.981 9.588C103.448 10.092 103.774 10.708 103.961 11.436C104.166 12.1453 104.269 12.9293 104.269 13.788V22.664C103.746 22.776 102.953 22.9067 101.889 23.056C100.844 23.224 99.6583 23.308 98.3329 23.308C97.4556 23.308 96.6529 23.224 95.9249 23.056C95.1969 22.888 94.5716 22.6173 94.0489 22.244C93.5449 21.8707 93.1436 21.3853 92.8449 20.788C92.5649 20.1907 92.4249 19.4533 92.4249 18.576C92.4249 17.736 92.5836 17.0267 92.9009 16.448C93.2369 15.8693 93.6849 15.4027 94.2449 15.048C94.8049 14.6747 95.4489 14.4133 96.1769 14.264C96.9236 14.096 97.6983 14.012 98.5009 14.012C98.8743 14.012 99.2663 14.04 99.6769 14.096C100.088 14.1333 100.526 14.208 100.993 14.32V13.76C100.993 13.368 100.946 12.9947 100.853 12.64C100.76 12.2853 100.592 11.9773 100.349 11.716C100.125 11.436 99.8169 11.2213 99.4249 11.072C99.0516 10.9227 98.5756 10.848 97.9969 10.848C97.2129 10.848 96.4943 10.904 95.8409 11.016C95.1876 11.128 94.6556 11.2587 94.2449 11.408L93.8249 8.664C94.2543 8.51467 94.8796 8.36533 95.7009 8.216C96.5223 8.06667 97.3996 7.992 98.3329 7.992ZM116.762 15.3C116.762 13.7693 116.566 12.668 116.174 11.996C115.801 11.3053 115.091 10.96 114.046 10.96C113.673 10.96 113.262 10.988 112.814 11.044C112.366 11.1 112.03 11.1467 111.806 11.184V23H108.418V8.832C109.071 8.64533 109.921 8.468 110.966 8.3C112.03 8.132 113.15 8.048 114.326 8.048C115.334 8.048 116.155 8.17867 116.79 8.44C117.443 8.70133 117.985 9.04667 118.414 9.476C118.619 9.32667 118.881 9.168 119.198 9C119.515 8.832 119.87 8.68267 120.262 8.552C120.654 8.40267 121.065 8.28133 121.494 8.188C121.942 8.09467 122.39 8.048 122.838 8.048C123.977 8.048 124.91 8.216 125.638 8.552C126.385 8.86933 126.963 9.32667 127.374 9.924C127.803 10.5027 128.093 11.212 128.242 12.052C128.41 12.8733 128.494 13.7787 128.494 14.768V23H125.106V15.3C125.106 13.7693 124.919 12.668 124.546 11.996C124.173 11.3053 123.454 10.96 122.39 10.96C121.849 10.96 121.335 11.0533 120.85 11.24C120.365 11.408 120.001 11.576 119.758 11.744C119.907 12.2107 120.01 12.7053 120.066 13.228C120.122 13.7507 120.15 14.3107 120.15 14.908V23H116.762V15.3Z" fill="white"/>
</g>
<defs>
<filter id="filter0_d" x="0.0932617" y="0.271973" width="133.401" height="32.036" filterUnits="userSpaceOnUse" color-interpolation-filters="sRGB">
<feFlood flood-opacity="0" result="BackgroundImageFix"/>
<feColorMatrix in="SourceAlpha" type="matrix" values="0 0 0 0 0 0 0 0 0 0 0 0 0 0 0 0 0 0 127 0"/>
<feOffset dy="4"/>
<feGaussianBlur stdDeviation="2.5"/>
<feColorMatrix type="matrix" values="0 0 0 0 0 0 0 0 0 0 0 0 0 0 0 0 0 0 0.25 0"/>
<feBlend mode="normal" in2="BackgroundImageFix" result="effect1_dropShadow"/>
<feBlend mode="normal" in="SourceGraphic" in2="effect1_dropShadow" result="shape"/>
</filter>
</defs>
</svg>
