<svg width="174" height="36" viewBox="0 0 174 36" fill="none" xmlns="http://www.w3.org/2000/svg">
<g filter="url(#filter0_d)">
<path d="M60.6124 26C60.3511 25.2347 60.0804 24.4787 59.8004 23.732C59.5204 22.9853 59.2498 22.22 58.9884 21.436H50.8124C50.5511 22.22 50.2804 22.9947 50.0004 23.76C49.7391 24.5067 49.4778 25.2533 49.2164 26H45.5484C46.2764 23.928 46.9671 22.0147 47.6204 20.26C48.2738 18.5053 48.9084 16.844 49.5244 15.276C50.1591 13.708 50.7844 12.2147 51.4004 10.796C52.0164 9.37733 52.6511 7.97733 53.3044 6.596H56.6364C57.2898 7.97733 57.9244 9.37733 58.5404 10.796C59.1564 12.2147 59.7724 13.708 60.3884 15.276C61.0231 16.844 61.6671 18.5053 62.3204 20.26C62.9924 22.0147 63.6924 23.928 64.4204 26H60.6124ZM54.9004 10.348C54.4711 11.3373 53.9764 12.5413 53.4164 13.96C52.8751 15.3787 52.3058 16.9187 51.7084 18.58H58.0924C57.4951 16.9187 56.9164 15.3693 56.3564 13.932C55.7964 12.4947 55.3111 11.3 54.9004 10.348ZM71.801 26.28C70.793 26.2613 69.953 26.1493 69.281 25.944C68.6277 25.7387 68.105 25.4493 67.713 25.076C67.321 24.684 67.041 24.208 66.873 23.648C66.7237 23.0693 66.649 22.416 66.649 21.688V4.832L70.037 4.272V21.044C70.037 21.4547 70.065 21.8 70.121 22.08C70.1957 22.36 70.317 22.6027 70.485 22.808C70.653 22.9947 70.877 23.144 71.157 23.256C71.4557 23.3493 71.829 23.424 72.277 23.48L71.801 26.28ZM80.1695 23.62C81.2149 23.62 82.0082 23.564 82.5495 23.452V19.7C82.3629 19.644 82.0922 19.588 81.7375 19.532C81.3829 19.476 80.9909 19.448 80.5615 19.448C80.1882 19.448 79.8055 19.476 79.4135 19.532C79.0402 19.588 78.6949 19.6907 78.3775 19.84C78.0789 19.9893 77.8362 20.204 77.6495 20.484C77.4629 20.7453 77.3695 21.0813 77.3695 21.492C77.3695 22.2947 77.6215 22.8547 78.1255 23.172C78.6295 23.4707 79.3109 23.62 80.1695 23.62ZM79.8895 10.992C81.0095 10.992 81.9522 11.132 82.7175 11.412C83.4829 11.692 84.0895 12.084 84.5375 12.588C85.0042 13.092 85.3309 13.708 85.5175 14.436C85.7229 15.1453 85.8255 15.9293 85.8255 16.788V25.664C85.3029 25.776 84.5095 25.9067 83.4455 26.056C82.4002 26.224 81.2149 26.308 79.8895 26.308C79.0122 26.308 78.2095 26.224 77.4815 26.056C76.7535 25.888 76.1282 25.6173 75.6055 25.244C75.1015 24.8707 74.7002 24.3853 74.4015 23.788C74.1215 23.1907 73.9815 22.4533 73.9815 21.576C73.9815 20.736 74.1402 20.0267 74.4575 19.448C74.7935 18.8693 75.2415 18.4027 75.8015 18.048C76.3615 17.6747 77.0055 17.4133 77.7335 17.264C78.4802 17.096 79.2549 17.012 80.0575 17.012C80.4309 17.012 80.8229 17.04 81.2335 17.096C81.6442 17.1333 82.0829 17.208 82.5495 17.32V16.76C82.5495 16.368 82.5029 15.9947 82.4095 15.64C82.3162 15.2853 82.1482 14.9773 81.9055 14.716C81.6815 14.436 81.3735 14.2213 80.9815 14.072C80.6082 13.9227 80.1322 13.848 79.5535 13.848C78.7695 13.848 78.0509 13.904 77.3975 14.016C76.7442 14.128 76.2122 14.2587 75.8015 14.408L75.3815 11.664C75.8109 11.5147 76.4362 11.3653 77.2575 11.216C78.0789 11.0667 78.9562 10.992 79.8895 10.992ZM93.3626 17.068C93.7919 16.62 94.2492 16.144 94.7346 15.64C95.2199 15.1173 95.6959 14.604 96.1626 14.1C96.6292 13.5773 97.0679 13.0827 97.4786 12.616C97.9079 12.1307 98.2719 11.7107 98.5706 11.356H102.575C101.641 12.4013 100.652 13.484 99.6066 14.604C98.5799 15.724 97.5439 16.816 96.4986 17.88C97.0586 18.3467 97.6466 18.916 98.2626 19.588C98.8786 20.2413 99.4759 20.9413 100.055 21.688C100.633 22.4347 101.175 23.1813 101.679 23.928C102.183 24.6747 102.603 25.3653 102.939 26H99.0186C98.6826 25.4213 98.2906 24.8147 97.8426 24.18C97.4132 23.5453 96.9466 22.9293 96.4426 22.332C95.9386 21.7347 95.4252 21.1747 94.9026 20.652C94.3799 20.1107 93.8666 19.6533 93.3626 19.28V26H89.9746V4.832L93.3626 4.272V17.068ZM110.548 23.62C111.594 23.62 112.387 23.564 112.928 23.452V19.7C112.742 19.644 112.471 19.588 112.116 19.532C111.762 19.476 111.37 19.448 110.94 19.448C110.567 19.448 110.184 19.476 109.792 19.532C109.419 19.588 109.074 19.6907 108.756 19.84C108.458 19.9893 108.215 20.204 108.028 20.484C107.842 20.7453 107.748 21.0813 107.748 21.492C107.748 22.2947 108 22.8547 108.504 23.172C109.008 23.4707 109.69 23.62 110.548 23.62ZM110.268 10.992C111.388 10.992 112.331 11.132 113.096 11.412C113.862 11.692 114.468 12.084 114.916 12.588C115.383 13.092 115.71 13.708 115.896 14.436C116.102 15.1453 116.204 15.9293 116.204 16.788V25.664C115.682 25.776 114.888 25.9067 113.824 26.056C112.779 26.224 111.594 26.308 110.268 26.308C109.391 26.308 108.588 26.224 107.86 26.056C107.132 25.888 106.507 25.6173 105.984 25.244C105.48 24.8707 105.079 24.3853 104.78 23.788C104.5 23.1907 104.36 22.4533 104.36 21.576C104.36 20.736 104.519 20.0267 104.836 19.448C105.172 18.8693 105.62 18.4027 106.18 18.048C106.74 17.6747 107.384 17.4133 108.112 17.264C108.859 17.096 109.634 17.012 110.436 17.012C110.81 17.012 111.202 17.04 111.612 17.096C112.023 17.1333 112.462 17.208 112.928 17.32V16.76C112.928 16.368 112.882 15.9947 112.788 15.64C112.695 15.2853 112.527 14.9773 112.284 14.716C112.06 14.436 111.752 14.2213 111.36 14.072C110.987 13.9227 110.511 13.848 109.932 13.848C109.148 13.848 108.43 13.904 107.776 14.016C107.123 14.128 106.591 14.2587 106.18 14.408L105.76 11.664C106.19 11.5147 106.815 11.3653 107.636 11.216C108.458 11.0667 109.335 10.992 110.268 10.992ZM130.601 13.736C130.228 14.128 129.733 14.6787 129.117 15.388C128.52 16.0973 127.876 16.8907 127.185 17.768C126.495 18.6267 125.795 19.532 125.085 20.484C124.395 21.4173 123.769 22.3133 123.209 23.172H130.769V26H119.121V23.9C119.532 23.1533 120.045 22.3413 120.661 21.464C121.277 20.5867 121.912 19.7093 122.565 18.832C123.219 17.936 123.863 17.0867 124.497 16.284C125.151 15.4813 125.729 14.7813 126.233 14.184H119.485V11.356H130.601V13.736ZM139.068 23.62C140.113 23.62 140.907 23.564 141.448 23.452V19.7C141.261 19.644 140.991 19.588 140.636 19.532C140.281 19.476 139.889 19.448 139.46 19.448C139.087 19.448 138.704 19.476 138.312 19.532C137.939 19.588 137.593 19.6907 137.276 19.84C136.977 19.9893 136.735 20.204 136.548 20.484C136.361 20.7453 136.268 21.0813 136.268 21.492C136.268 22.2947 136.52 22.8547 137.024 23.172C137.528 23.4707 138.209 23.62 139.068 23.62ZM138.788 10.992C139.908 10.992 140.851 11.132 141.616 11.412C142.381 11.692 142.988 12.084 143.436 12.588C143.903 13.092 144.229 13.708 144.416 14.436C144.621 15.1453 144.724 15.9293 144.724 16.788V25.664C144.201 25.776 143.408 25.9067 142.344 26.056C141.299 26.224 140.113 26.308 138.788 26.308C137.911 26.308 137.108 26.224 136.38 26.056C135.652 25.888 135.027 25.6173 134.504 25.244C134 24.8707 133.599 24.3853 133.3 23.788C133.02 23.1907 132.88 22.4533 132.88 21.576C132.88 20.736 133.039 20.0267 133.356 19.448C133.692 18.8693 134.14 18.4027 134.7 18.048C135.26 17.6747 135.904 17.4133 136.632 17.264C137.379 17.096 138.153 17.012 138.956 17.012C139.329 17.012 139.721 17.04 140.132 17.096C140.543 17.1333 140.981 17.208 141.448 17.32V16.76C141.448 16.368 141.401 15.9947 141.308 15.64C141.215 15.2853 141.047 14.9773 140.804 14.716C140.58 14.436 140.272 14.2213 139.88 14.072C139.507 13.9227 139.031 13.848 138.452 13.848C137.668 13.848 136.949 13.904 136.296 14.016C135.643 14.128 135.111 14.2587 134.7 14.408L134.28 11.664C134.709 11.5147 135.335 11.3653 136.156 11.216C136.977 11.0667 137.855 10.992 138.788 10.992ZM157.217 18.3C157.217 16.7693 157.021 15.668 156.629 14.996C156.256 14.3053 155.546 13.96 154.501 13.96C154.128 13.96 153.717 13.988 153.269 14.044C152.821 14.1 152.485 14.1467 152.261 14.184V26H148.873V11.832C149.526 11.6453 150.376 11.468 151.421 11.3C152.485 11.132 153.605 11.048 154.781 11.048C155.789 11.048 156.61 11.1787 157.245 11.44C157.898 11.7013 158.44 12.0467 158.869 12.476C159.074 12.3267 159.336 12.168 159.653 12C159.97 11.832 160.325 11.6827 160.717 11.552C161.109 11.4027 161.52 11.2813 161.949 11.188C162.397 11.0947 162.845 11.048 163.293 11.048C164.432 11.048 165.365 11.216 166.093 11.552C166.84 11.8693 167.418 12.3267 167.829 12.924C168.258 13.5027 168.548 14.212 168.697 15.052C168.865 15.8733 168.949 16.7787 168.949 17.768V26H165.561V18.3C165.561 16.7693 165.374 15.668 165.001 14.996C164.628 14.3053 163.909 13.96 162.845 13.96C162.304 13.96 161.79 14.0533 161.305 14.24C160.82 14.408 160.456 14.576 160.213 14.744C160.362 15.2107 160.465 15.7053 160.521 16.228C160.577 16.7507 160.605 17.3107 160.605 17.908V26H157.217V18.3Z" fill="white"/>
</g>
<rect width="32.5973" height="32" rx="5" fill="white"/>
<ellipse cx="16.2984" cy="16" rx="14.2613" ry="14" fill="#FF914D"/>
<ellipse cx="16.2994" cy="16" rx="7.13067" ry="7" fill="white"/>
<ellipse rx="3.55887" ry="3.46338" transform="matrix(-0.713615 -0.700539 0.713615 -0.700539 26.9223 5.90413)" fill="#DA4E4E"/>
<path d="M21.9794 10.7566L23.4872 4.95818L27.8861 9.2764L21.9794 10.7566Z" fill="#DA4E4E"/>
<defs>
<filter id="filter0_d" x="40.5483" y="3.27197" width="133.401" height="32.036" filterUnits="userSpaceOnUse" color-interpolation-filters="sRGB">
<feFlood flood-opacity="0" result="BackgroundImageFix"/>
<feColorMatrix in="SourceAlpha" type="matrix" values="0 0 0 0 0 0 0 0 0 0 0 0 0 0 0 0 0 0 127 0"/>
<feOffset dy="4"/>
<feGaussianBlur stdDeviation="2.5"/>
<feColorMatrix type="matrix" values="0 0 0 0 0 0 0 0 0 0 0 0 0 0 0 0 0 0 0.25 0"/>
<feBlend mode="normal" in2="BackgroundImageFix" result="effect1_dropShadow"/>
<feBlend mode="normal" in="SourceGraphic" in2="effect1_dropShadow" result="shape"/>
</filter>
</defs>
</svg>
